<svg width="24" height="20" viewBox="0 0 24 20" fill="none" xmlns="http://www.w3.org/2000/svg">
<g opacity="0.2">
<path fill-rule="evenodd" clip-rule="evenodd" d="M15.5391 7.29961C15.5391 6.98135 15.6655 6.67613 15.8905 6.45108C16.1156 6.22604 16.4208 6.09961 16.7391 6.09961H23.0391C23.3573 6.09961 23.6625 6.22604 23.8876 6.45108C24.1126 6.67613 24.2391 6.98135 24.2391 7.29961C24.2391 7.61787 24.1126 7.92309 23.8876 8.14814C23.6625 8.37318 23.3573 8.49961 23.0391 8.49961H16.7391C16.4208 8.49961 16.1156 8.37318 15.8905 8.14814C15.6655 7.92309 15.5391 7.61787 15.5391 7.29961Z" fill="#FC5B53"/>
<path fill-rule="evenodd" clip-rule="evenodd" d="M19.8001 11.7996C19.4818 11.7996 19.1766 11.6732 18.9516 11.4481C18.7265 11.2231 18.6001 10.9179 18.6001 10.5996V4.29961C18.6001 3.98135 18.7265 3.67613 18.9516 3.45108C19.1766 3.22604 19.4818 3.09961 19.8001 3.09961C20.1184 3.09961 20.4236 3.22604 20.6486 3.45108C20.8737 3.67613 21.0001 3.98135 21.0001 4.29961V10.5996C21.0001 10.9179 20.8737 11.2231 20.6486 11.4481C20.4236 11.6732 20.1184 11.7996 19.8001 11.7996Z" fill="#FC5B53"/>
<path d="M13.2 5.91883C13.2 7.64203 11.856 9.03883 10.2 9.03883C8.54395 9.03883 7.19995 7.64203 7.19995 5.91883C7.19995 4.19563 8.54395 2.79883 10.2 2.79883C11.856 2.79883 13.2 4.19563 13.2 5.91883Z" fill="#FC5B53"/>
<path fill-rule="evenodd" clip-rule="evenodd" d="M10.2 3.99961C9.2496 3.99961 8.4 4.81441 8.4 5.91961C8.4 7.02481 9.2496 7.83961 10.2 7.83961C11.1504 7.83961 12 7.02481 12 5.91961C12 4.81441 11.1504 3.99961 10.2 3.99961ZM6 5.91961C6 3.57961 7.836 1.59961 10.2 1.59961C12.564 1.59961 14.4 3.57961 14.4 5.91961C14.4 8.25961 12.564 10.2396 10.2 10.2396C7.836 10.2396 6 8.25961 6 5.91961Z" fill="#FC5B53"/>
<path fill-rule="evenodd" clip-rule="evenodd" d="M16.2 18.3997V15.7993C16.2 12.5785 13.4952 10.0801 10.2156 10.0801C6.93595 10.0801 4.19995 12.5785 4.19995 15.7993L4.20235 18.3997" fill="#FC5B53"/>
<path fill-rule="evenodd" clip-rule="evenodd" d="M3 15.7981C3 11.8441 6.348 8.87891 10.2156 8.87891C14.094 8.87891 17.4 11.8525 17.4 15.7981V18.3985C17.4 18.7168 17.2736 19.022 17.0485 19.247C16.8235 19.4721 16.5183 19.5985 16.2 19.5985C15.8817 19.5985 15.5765 19.4721 15.3515 19.247C15.1264 19.022 15 18.7168 15 18.3985V15.7981C15 13.3021 12.8964 11.2789 10.2156 11.2789C7.5276 11.2789 5.4 13.3093 5.4 15.7981L5.4024 18.3973C5.40272 18.7156 5.2766 19.0209 5.05178 19.2462C4.82696 19.4715 4.52186 19.5982 4.2036 19.5985C3.88534 19.5988 3.57999 19.4727 3.35472 19.2479C3.12945 19.0231 3.00272 18.718 3.0024 18.3997L3 15.7981Z" fill="#FC5B53"/>
<path fill-rule="evenodd" clip-rule="evenodd" d="M16.2 19.6004H4.19995V18.4004H16.2V19.6004Z" fill="#FC5B53"/>
</g>
<path fill-rule="evenodd" clip-rule="evenodd" d="M14.3391 6.1C14.3391 5.94087 14.4023 5.78826 14.5148 5.67574C14.6274 5.56321 14.78 5.5 14.9391 5.5H21.2391C21.3982 5.5 21.5509 5.56321 21.6634 5.67574C21.7759 5.78826 21.8391 5.94087 21.8391 6.1C21.8391 6.25913 21.7759 6.41174 21.6634 6.52426C21.5509 6.63679 21.3982 6.7 21.2391 6.7H14.9391C14.78 6.7 14.6274 6.63679 14.5148 6.52426C14.4023 6.41174 14.3391 6.25913 14.3391 6.1Z" fill="#1A1A1A"/>
<path fill-rule="evenodd" clip-rule="evenodd" d="M18.0009 10.0004C17.8418 10.0004 17.6892 9.93718 17.5767 9.82466C17.4642 9.71213 17.4009 9.55952 17.4009 9.40039V3.10039C17.4009 2.94126 17.4642 2.78865 17.5767 2.67613C17.6892 2.56361 17.8418 2.50039 18.0009 2.50039C18.1601 2.50039 18.3127 2.56361 18.4252 2.67613C18.5377 2.78865 18.6009 2.94126 18.6009 3.10039V9.40039C18.6009 9.55952 18.5377 9.71213 18.4252 9.82466C18.3127 9.93718 18.1601 10.0004 18.0009 10.0004ZM8.16094 1.60039C7.36529 1.60039 6.60223 1.91646 6.03962 2.47907C5.47701 3.04168 5.16094 3.80474 5.16094 4.60039C5.16094 5.39604 5.47701 6.1591 6.03962 6.72171C6.60223 7.28432 7.36529 7.60039 8.16094 7.60039C8.95659 7.60039 9.71965 7.28432 10.2823 6.72171C10.8449 6.1591 11.1609 5.39604 11.1609 4.60039C11.1609 3.80474 10.8449 3.04168 10.2823 2.47907C9.71965 1.91646 8.95659 1.60039 8.16094 1.60039ZM3.96094 4.60039C3.96094 4.04884 4.06957 3.50269 4.28064 2.99312C4.49171 2.48355 4.80108 2.02055 5.19109 1.63054C5.58109 1.24054 6.0441 0.931166 6.55367 0.720097C7.06323 0.509027 7.60939 0.400391 8.16094 0.400391C8.71249 0.400391 9.25864 0.509027 9.76821 0.720097C10.2778 0.931166 10.7408 1.24054 11.1308 1.63054C11.5208 2.02055 11.8302 2.48355 12.0412 2.99312C12.2523 3.50269 12.3609 4.04884 12.3609 4.60039C12.3609 5.7143 11.9184 6.78259 11.1308 7.57024C10.3431 8.35789 9.27485 8.80039 8.16094 8.80039C7.04703 8.80039 5.97874 8.35789 5.19109 7.57024C4.40344 6.78259 3.96094 5.7143 3.96094 4.60039Z" fill="#1A1A1A"/>
<path fill-rule="evenodd" clip-rule="evenodd" d="M0.960938 15.3996C0.960938 11.4132 4.16494 7.59961 8.16094 7.59961C12.1569 7.59961 15.3609 11.4132 15.3609 15.3996V17.7996C15.3609 17.9587 15.2977 18.1114 15.1852 18.2239C15.0727 18.3364 14.9201 18.3996 14.7609 18.3996C14.6018 18.3996 14.4492 18.3364 14.3367 18.2239C14.2242 18.1114 14.1609 17.9587 14.1609 17.7996V15.3996C14.1609 11.952 11.3769 8.79961 8.16094 8.79961C4.94494 8.79961 2.16094 11.952 2.16094 15.3996V17.7996C2.16094 17.9587 2.09772 18.1114 1.9852 18.2239C1.87268 18.3364 1.72007 18.3996 1.56094 18.3996C1.40181 18.3996 1.2492 18.3364 1.13667 18.2239C1.02415 18.1114 0.960938 17.9587 0.960938 17.7996V15.3996Z" fill="#1A1A1A"/>
</svg>
