<svg xmlns="http://www.w3.org/2000/svg" viewBox="0 0 48 48" width="48" height="48">
  <path fill="#4285F4" d="M24 9.5c3.5 0 6.6 1.2 9.1 3.3l6.8-6.8C35.2 2.2 29.9 0 24 0 14.6 0 6.6 5.7 2.9 13.8l8.4 6.5C13.3 14.2 18.2 9.5 24 9.5z"/>
  <path fill="#34A853" d="M46.5 24c0-1.6-.1-3.1-.4-4.5H24v8.5h12.7c-1.2 3.1-3.1 5.7-5.5 7.5l8.4 6.5c4.9-4.5 7.9-11.2 7.9-18z"/>
  <path fill="#FBBC05" d="M13.1 28.4c-1-2.6-1-5.5 0-8l-8.4-6.5c-2.7 5.3-2.7 11.6 0 16.9l8.4-6.4z"/>
  <path fill="#EA4335" d="M24 48c6.5 0 12-2.1 16-5.6l-8.4-6.5c-2.3 1.5-5.2 2.3-7.6 2.3-5.8 0-10.7-4.7-12.6-11l-8.4 6.5C6.6 42.3 14.6 48 24 48z"/>
</svg>
