<svg width="56" height="56" viewBox="0 0 56 56" fill="none" xmlns="http://www.w3.org/2000/svg">
<rect x="0.5" y="0.5" width="55" height="55" rx="27.5" fill="#FFD2CF"/>
<rect x="0.5" y="0.5" width="55" height="55" rx="27.5" stroke="#FFB6A7"/>
<g clip-path="url(#clip0_807_6101)">
<path d="M32.5 19C30.76 19 29.09 19.81 28 21.09C26.91 19.81 25.24 19 23.5 19C20.42 19 18 21.42 18 24.5C18 28.28 21.4 31.36 26.55 36.04L28 37.35L29.45 36.03C34.6 31.36 38 28.28 38 24.5C38 21.42 35.58 19 32.5 19ZM28.1 34.55L28 34.65L27.9 34.55C23.14 30.24 20 27.39 20 24.5C20 22.5 21.5 21 23.5 21C25.04 21 26.54 21.99 27.07 23.36H28.94C29.46 21.99 30.96 21 32.5 21C34.5 21 36 22.5 36 24.5C36 27.39 32.86 30.24 28.1 34.55Z" fill="#FC5B53"/>
</g>
<defs>
<clipPath id="clip0_807_6101">
<rect width="24" height="24" fill="white" transform="translate(16 16)"/>
</clipPath>
</defs>
</svg>
