<svg width="20" height="20" viewBox="0 0 20 20" fill="none" xmlns="http://www.w3.org/2000/svg">
<path fill-rule="evenodd" clip-rule="evenodd" d="M17.6903 6.37558C17.5667 6.56058 17.5008 6.77809 17.5008 7.0006C17.5008 7.29896 17.6193 7.58511 17.8303 7.79609C18.0412 8.00707 18.3274 8.1256 18.6258 8.1256C18.8483 8.1256 19.0658 8.05962 19.2508 7.936C19.4358 7.81238 19.58 7.63668 19.6651 7.43111C19.7503 7.22555 19.7725 6.99935 19.7291 6.78112C19.6857 6.56289 19.5786 6.36243 19.4212 6.2051C19.2639 6.04777 19.0635 5.94062 18.8452 5.89721C18.627 5.8538 18.4008 5.87608 18.1952 5.96123C17.9897 6.04638 17.814 6.19057 17.6903 6.37558ZM17.0008 4.561C16.8158 4.68462 16.5983 4.7506 16.3758 4.7506C16.0774 4.7506 15.7912 4.63207 15.5803 4.42109C15.3693 4.21011 15.2508 3.92396 15.2508 3.6256C15.2508 3.40309 15.3167 3.18558 15.4403 3.00058C15.564 2.81557 15.7397 2.67138 15.9452 2.58623C16.1508 2.50108 16.377 2.4788 16.5952 2.52221C16.8135 2.56562 17.0139 2.67277 17.1712 2.8301C17.3286 2.98743 17.4357 3.18789 17.4791 3.40612C17.5225 3.62435 17.5003 3.85055 17.4151 4.05611C17.33 4.26168 17.1858 4.43738 17.0008 4.561ZM18.5162 10.1758C18.6679 10.0473 18.8645 9.98425 19.0626 10.0006C19.1612 10.0084 19.2573 10.0356 19.3454 10.0807C19.4334 10.1258 19.5117 10.1879 19.5756 10.2633C19.6396 10.3388 19.688 10.4262 19.7181 10.5204C19.7481 10.6147 19.7592 10.7139 19.7508 10.8125C19.5914 12.6649 18.9063 14.4334 17.776 15.9097C16.6458 17.386 15.1174 18.5089 13.3707 19.1461C11.6239 19.7833 9.73156 19.9083 7.91617 19.5066C6.10078 19.1048 4.4379 18.1929 3.12317 16.8782C1.80843 15.5634 0.896538 13.9006 0.494771 12.0852C0.0930051 10.2698 0.218079 8.37741 0.85528 6.63069C1.49248 4.88397 2.6153 3.35557 4.09163 2.2253C5.56797 1.09504 7.3364 0.409938 9.18888 0.250595C9.28737 0.242469 9.38649 0.253823 9.4806 0.284007C9.5747 0.314191 9.66194 0.362614 9.73733 0.426513C9.81272 0.490411 9.87478 0.568533 9.91998 0.656417C9.96518 0.744302 9.99263 0.840228 10.0008 0.93872C10.0089 1.03721 9.99752 1.13634 9.96734 1.23044C9.93716 1.32455 9.88873 1.41178 9.82483 1.48717C9.76093 1.56256 9.68281 1.62463 9.59493 1.66983C9.50704 1.71502 9.41112 1.74247 9.31263 1.7506C7.74478 1.8858 6.24817 2.466 4.99888 3.42292C3.74959 4.37984 2.7996 5.67367 2.26069 7.15218C1.72178 8.63069 1.61637 10.2324 1.95686 11.7688C2.29735 13.3051 3.06957 14.7123 4.18267 15.8247C5.29577 16.9371 6.70343 17.7085 8.24003 18.048C9.77663 18.3875 11.3782 18.2811 12.8564 17.7412C14.3346 17.2014 15.6278 16.2506 16.584 15.0007C17.5401 13.7508 18.1193 12.2538 18.2536 10.6859C18.27 10.4878 18.3645 10.3043 18.5162 10.1758ZM13.6258 2.311C13.4408 2.43461 13.2233 2.5006 13.0008 2.5006C12.7024 2.5006 12.4162 2.38207 12.2053 2.17109C11.9943 1.96011 11.8758 1.67396 11.8758 1.37559C11.8758 1.15309 11.9417 0.935584 12.0653 0.750578C12.189 0.565573 12.3647 0.421379 12.5702 0.336231C12.7758 0.251082 13.002 0.228803 13.2202 0.272212C13.4385 0.31562 13.6389 0.422766 13.7962 0.5801C13.9536 0.737434 14.0607 0.93789 14.1041 1.15612C14.1475 1.37435 14.1253 1.60055 14.0401 1.80611C13.955 2.01168 13.8108 2.18738 13.6258 2.311Z" fill="#1A1A1A"/>
<path d="M9.25075 10.0006C9.25075 10.1995 9.32977 10.3903 9.47042 10.5309C9.61107 10.6716 9.80184 10.7506 10.0008 10.7506H14.5008C14.6997 10.7506 14.8904 10.6716 15.0311 10.5309C15.1717 10.3903 15.2508 10.1995 15.2508 10.0006C15.2508 9.80168 15.1717 9.61092 15.0311 9.47027C14.8904 9.32961 14.6997 9.2506 14.5008 9.2506H10.7508V5.5006C10.7508 5.30168 10.6717 5.11092 10.5311 4.97027C10.3904 4.82961 10.1997 4.7506 10.0008 4.7506C9.80184 4.7506 9.61107 4.82961 9.47042 4.97027C9.32977 5.11092 9.25075 5.30168 9.25075 5.5006V10.0006Z" fill="#1A1A1A"/>
<path fill-rule="evenodd" clip-rule="evenodd" d="M10.0008 3.2506C11.3358 3.2506 12.6408 3.64648 13.7508 4.38818C14.8609 5.12987 15.726 6.18408 16.2369 7.41748C16.7478 8.65088 16.8815 10.0081 16.6211 11.3175C16.3606 12.6268 15.7177 13.8296 14.7737 14.7736C13.8297 15.7176 12.627 16.3604 11.3176 16.6209C10.0082 16.8813 8.65104 16.7477 7.41764 16.2368C6.18424 15.7259 5.13003 14.8607 4.38833 13.7507C3.64663 12.6407 3.25075 11.3356 3.25075 10.0006C3.25274 8.21099 3.96453 6.49526 5.22997 5.22982C6.49541 3.96438 8.21115 3.25258 10.0008 3.2506ZM9.47042 10.5309C9.32977 10.3903 9.25075 10.1995 9.25075 10.0006V5.5006C9.25075 5.30168 9.32977 5.11092 9.47042 4.97027C9.61107 4.82961 9.80184 4.7506 10.0008 4.7506C10.1997 4.7506 10.3904 4.82961 10.5311 4.97027C10.6717 5.11092 10.7508 5.30168 10.7508 5.5006V9.2506H14.5008C14.6997 9.2506 14.8904 9.32961 15.0311 9.47027C15.1717 9.61092 15.2508 9.80168 15.2508 10.0006C15.2508 10.1995 15.1717 10.3903 15.0311 10.5309C14.8904 10.6716 14.6997 10.7506 14.5008 10.7506H10.0008C9.80184 10.7506 9.61107 10.6716 9.47042 10.5309Z" fill="#FC5B53" fill-opacity="0.4"/>
</svg>
