<svg width="24" height="24" viewBox="0 0 24 24" fill="none" xmlns="http://www.w3.org/2000/svg">
<path fill-rule="evenodd" clip-rule="evenodd" d="M11.8545 21.4648C13.863 20.1388 15.8843 17.9286 17.4803 15.1642C19.0764 12.3998 19.9797 9.54425 20.1239 7.14184C20.2653 4.78636 19.6767 2.63 17.9766 1.64845C16.2765 0.66691 14.1147 1.23529 12.1455 2.53547C10.137 3.86156 8.11573 6.07167 6.51969 8.83609C4.92365 11.6005 4.02028 14.4561 3.87608 16.8585C3.73469 19.214 4.32335 21.3703 6.02344 22.3519C7.72354 23.3334 9.88531 22.765 11.8545 21.4648ZM11.0797 20.2913C9.24996 21.4994 7.71686 21.7058 6.72657 21.134C5.73627 20.5623 5.14843 19.1314 5.2798 16.9427C5.40835 14.801 6.22698 12.1556 7.73754 9.53922C9.24809 6.92286 11.1298 4.89118 12.9203 3.709C14.75 2.50092 16.2831 2.29455 17.2734 2.8663C18.2637 3.43805 18.8516 4.86894 18.7202 7.05758C18.5917 9.19929 17.773 11.8447 16.2625 14.4611C14.7519 17.0774 12.8702 19.1091 11.0797 20.2913Z" fill="#FC5B53"/>
<path fill-rule="evenodd" clip-rule="evenodd" d="M12.1455 21.4648C14.1147 22.765 16.2764 23.3334 17.9766 22.3519C19.6767 21.3703 20.2653 19.214 20.1239 16.8585C19.9797 14.4561 19.0764 11.6005 17.4803 8.83609C15.8843 6.07167 13.863 3.86156 11.8545 2.53547C9.88531 1.23529 7.72354 0.666902 6.02344 1.64845C4.32335 2.63 3.73469 4.78636 3.87608 7.14184C4.02028 9.54425 4.92365 12.3998 6.51969 15.1642C8.11573 17.9286 10.137 20.1388 12.1455 21.4648ZM12.9203 20.2913C11.1298 19.1091 9.24809 17.0774 7.73754 14.4611C6.22698 11.8447 5.40835 9.19929 5.2798 7.05758C5.14843 4.86894 5.73627 3.43805 6.72657 2.8663C7.71686 2.29455 9.24996 2.50091 11.0797 3.709C12.8702 4.89119 14.7519 6.92286 16.2625 9.53922C17.773 12.1556 18.5917 14.801 18.7202 16.9427C18.8516 19.1314 18.2637 20.5623 17.2734 21.134C16.2831 21.7058 14.75 21.4994 12.9203 20.2913Z" fill="#FC5B53"/>
<path fill-rule="evenodd" clip-rule="evenodd" d="M3.70861 16.6072C5.87224 17.6829 8.80795 18.3283 12 18.3283C15.1921 18.3283 18.1278 17.6829 20.2914 16.6072C22.411 15.5535 24 13.9662 24 12.0002C24 10.0341 22.411 8.44682 20.2914 7.39307C18.1278 6.31745 15.1921 5.67203 12 5.67203C8.80795 5.67203 5.87224 6.31745 3.70861 7.39307C1.58898 8.44682 0 10.0341 0 12.0002C0 13.9662 1.58898 15.5535 3.70861 16.6072ZM4.33462 15.348C2.35911 14.3659 1.40625 13.1407 1.40625 12.0002C1.40625 10.8596 2.35911 9.6344 4.33462 8.6523C6.26613 7.69207 8.97887 7.07828 12 7.07828C15.0212 7.07828 17.7339 7.69207 19.6654 8.65229C21.6409 9.63439 22.5937 10.8596 22.5937 12.0002C22.5937 13.1407 21.6409 14.3659 19.6654 15.348C17.7339 16.3082 15.0212 16.922 12 16.922C8.97887 16.922 6.26613 16.3082 4.33462 15.348Z" fill="#FC5B53"/>
<path fill-rule="evenodd" clip-rule="evenodd" d="M12 15.6862L14.8977 12.7885C15.7216 11.9646 15.7216 10.6295 14.8977 9.80558C14.1016 9.00949 12.8283 8.9826 12 9.72491C11.1717 8.9826 9.89839 9.00949 9.1023 9.80558C8.27838 10.6295 8.27838 11.9646 9.1023 12.7885L12 15.6862ZM12 13.6974L10.0967 11.7941C9.82193 11.5194 9.82193 11.0747 10.0967 10.7999C10.3714 10.5252 10.8161 10.5252 11.0908 10.7999L12 11.7091L12.9092 10.7999C13.1839 10.5252 13.6286 10.5252 13.9033 10.7999C14.1781 11.0747 14.1781 11.5194 13.9033 11.7941L12 13.6974Z" fill="#FC5B53"/>
<path d="M10.0967 11.7941L12 13.6974L13.9033 11.7941C14.1781 11.5194 14.1781 11.0747 13.9033 10.7999C13.6286 10.5252 13.1839 10.5252 12.9092 10.7999L12 11.7091L11.0908 10.7999C10.8161 10.5252 10.3714 10.5252 10.0967 10.7999C9.82193 11.0747 9.82193 11.5194 10.0967 11.7941Z" fill="#FC5B53"/>
</svg>
